<?xml version="1.0" encoding="UTF-8"?>
<svg width="72px" height="72px" viewBox="0 0 72 72" version="1.1" xmlns="http://www.w3.org/2000/svg" xmlns:xlink="http://www.w3.org/1999/xlink">
    <!-- Generator: Sketch 56.3 (81716) - https://sketch.com -->
    <title>ic_index_High intelligence</title>
    <desc>Created with Sketch.</desc>
    <g id="ic_index_High-intelligence" stroke="none" stroke-width="1" fill="none" fill-rule="evenodd">
        <g id="Group-5" transform="translate(4.000000, 2.000000)" stroke-width="2">
            <ellipse id="Oval-Copy-19" stroke="#00B259" cx="52.2352941" cy="38.25" rx="4.23529412" ry="4.25"/>
            <ellipse id="Oval-Copy-20" stroke="#2665F6" cx="53.6470588" cy="56.6666667" rx="4.23529412" ry="4.25"/>
            <path d="M35.2941176,9.91666667 C35.2941176,4.4398429 30.8696375,0 25.4117647,0 C21.1772512,0 17.5647881,2.67256225 16.1580989,6.42846435 C15.9471365,6.99174014 15.7857848,7.57938159 15.6793856,8.18602822" id="Shape" stroke="#21252E"/>
            <path d="M16.2352941,7.08333333 C8.04848489,7.08333333 1.41176471,13.7430977 1.41176471,21.9583333 C1.41176471,30.173569 8.04848489,36.8333333 16.2352941,36.8333333 L16.2352941,36.8333333" id="Path" stroke="#21252E"/>
            <path d="M7.05882353,34 C3.16034294,34 0,37.1713164 0,41.0833333 C0,43.4625326 1.16894585,45.567762 2.9619571,46.852249 C3.3001981,47.0945599 3.66064745,47.3076634 4.03964728,47.4878889" id="Path" stroke="#21252E"/>
            <path d="M3.24191992,47.2284415 C2.96809168,48.4415131 2.82352941,49.7038158 2.82352941,51 C2.82352941,60.3888407 10.4083525,68 19.7647059,68 C29.1210593,68 36.7058824,60.3888407 36.7058824,51" id="Path" stroke="#21252E" stroke-linecap="square"/>
            <path d="M21.8128517,26.9166667 C18.8973796,28.6410102 16.9411765,31.8242319 16.9411765,35.4659357 C16.9411765,40.1055797 20.116398,44.0010359 24.4052303,45.0835353" id="Shape" stroke="#21252E"/>
            <polyline id="Path-7" stroke="#00B259" points="49.5712316 8.5 44.9149816 13.496148 35.2941176 13.496148 35.2941176 23.2624783 55.7670037 23.2624783"/>
            <ellipse id="Oval" stroke="#2665F6" cx="52.2352941" cy="5.66666667" rx="4.23529412" ry="4.25"/>
            <ellipse id="Oval-Copy-18" stroke="#00B259" cx="59.2941176" cy="22.6666667" rx="4.23529412" ry="4.25"/>
            <polyline id="Path-8" stroke="#00B259" points="35.2941176 29.8620605 35.2941176 38.8218316 48.8892463 38.8218316"/>
            <polyline id="Path-9" stroke="#2665F6" points="35.2941176 49.7315573 44.9209559 49.7315573 50.3318015 55.333469"/>
        </g>
    </g>
</svg>