<?xml version="1.0" encoding="UTF-8"?>
<svg width="72px" height="72px" viewBox="0 0 72 72" version="1.1" xmlns="http://www.w3.org/2000/svg" xmlns:xlink="http://www.w3.org/1999/xlink">
    <!-- Generator: Sketch 56.3 (81716) - https://sketch.com -->
    <title>ic_index_Multiple applications</title>
    <desc>Created with Sketch.</desc>
    <g id="ic_index_Multiple-applications" stroke="none" stroke-width="1" fill="none" fill-rule="evenodd">
        <g id="Group-4" transform="translate(1.000000, 1.000000)" stroke-width="2">
            <path d="" id="Path-3" stroke="#21252E"/>
            <path d="" id="Path-3-Copy-2" stroke="#21252E"/>
            <path d="" id="Path-3-Copy" stroke="#21252E"/>
            <polygon id="Path" stroke="#21252E" points="17.0171715 10.2578313 34.2510461 -3.55271368e-15 50.9488133 9.91748791 50.9488133 29.5048506 33.9829924 39.4705317 17.0171715 29.5048506"/>
            <polygon id="Path-Copy" stroke="#21252E" points="-1.0658141e-14 39.5772214 17.2338746 29.31939 33.9316418 39.2368779 33.9316418 58.8242406 16.9658209 68.7899217 -1.0658141e-14 58.8242406"/>
            <polyline id="Path-2" stroke="#21252E" points="33.9829924 39.4705317 33.9829924 19.7352658 50.9488133 10.2578313"/>
            <polyline id="Path-2-Copy" stroke="#21252E" points="16.9658209 68.7899217 16.9658209 49.0546558 33.9316418 39.5772214"/>
            <path d="M33.9829924,19.7352658 L17.6978584,10.5981748" id="Line" stroke="#21252E" stroke-linecap="square"/>
            <path d="M16.9658209,49.0546558 L0.680686861,39.9175648" id="Line-Copy" stroke="#21252E" stroke-linecap="square"/>
            <path d="M21.4831819,26.936986 L28.9707374,22.172178" id="Line-2" stroke="#21252E" stroke-linecap="square"/>
            <path d="M4.46601042,56.256376 L11.9535659,51.491568" id="Line-2-Copy" stroke="#21252E" stroke-linecap="square"/>
            <path d="M38.5003535,26.936986 L45.9879089,22.172178" id="Line-2" stroke="#21252E" stroke-linecap="square" transform="translate(42.244131, 24.554582) scale(-1, 1) translate(-42.244131, -24.554582) "/>
            <path d="M55.5590708,56.256376 L63.0466263,51.491568" id="Line-2-Copy-4" stroke="#00B259" stroke-linecap="square" transform="translate(59.302849, 53.873972) scale(-1, 1) translate(-59.302849, -53.873972) "/>
            <path d="M21.4831819,56.256376 L28.9707374,51.491568" id="Line-2-Copy-2" stroke="#21252E" stroke-linecap="square" transform="translate(25.226960, 53.873972) scale(-1, 1) translate(-25.226960, -53.873972) "/>
            <path d="M38.5418993,56.256376 L46.0294548,51.491568" id="Line-2-Copy-3" stroke="#00B259" stroke-linecap="square"/>
            <g id="Group-12" transform="translate(34.034343, 29.307351)" stroke="#2665F6">
                <polygon id="Path-Copy-2" points="0 10.3192169 17.2860365 5.68434189e-14 34.034343 9.97683673 34.034343 29.6814153 17.0171715 39.7067336 0 29.6814153"/>
                <polyline id="Path-2-Copy-2" points="17.0171715 39.7067336 17.0171715 19.9075245 34.034343 10.3993826"/>
                <path d="M16.924275,19.7992913 L0.639141032,10.7347168" id="Line-Copy-2" stroke-linecap="square"/>
            </g>
        </g>
    </g>
</svg>